<?xml version="1.0" encoding="UTF-8"?>
<svg xmlns="http://www.w3.org/2000/svg" xmlns:xlink="http://www.w3.org/1999/xlink" width="40px" height="40px" viewBox="0 0 40 40" version="1.1">
<g id="surface1">
<path style=" stroke:none;fill-rule:evenodd;fill:rgb(13.72549%,58.039216%,87.843137%);fill-opacity:1;" d="M 20.394531 0.0429688 C 30.792969 0.0429688 39.222656 7.445312 39.222656 16.578125 C 39.222656 16.632812 39.222656 16.691406 39.21875 16.746094 C 38.75 16.578125 38.210938 16.546875 37.6875 16.703125 C 37.496094 16.757812 37.320312 16.835938 37.164062 16.933594 C 35.902344 17.640625 34.410156 18.296875 32.914062 18.949219 C 26.601562 21.71875 20.238281 24.507812 22.226562 33.03125 C 21.621094 33.082031 21.007812 33.109375 20.390625 33.109375 C 19.507812 33.109375 18.636719 33.054688 17.785156 32.949219 C 19.714844 24.488281 13.367188 21.707031 7.082031 18.949219 C 5.585938 18.292969 4.089844 17.640625 2.832031 16.933594 C 2.675781 16.839844 2.496094 16.761719 2.308594 16.703125 C 2.0625 16.628906 1.8125 16.597656 1.570312 16.601562 L 1.570312 16.578125 C 1.566406 7.445312 10 0.0429688 20.394531 0.0429688 Z M 20.394531 0.0429688 "/>
<path style=" stroke:none;fill-rule:evenodd;fill:rgb(63.137255%,89.019608%,40.392157%);fill-opacity:1;" d="M 5.167969 25.117188 C 4.058594 23.640625 3.226562 21.988281 2.742188 20.214844 L 6.054688 21.617188 L 6.074219 22.484375 C 6.074219 22.804688 5.453125 23.480469 5.257812 23.742188 Z M 25.566406 1.792969 C 31.882812 3.636719 36.625 8.519531 37.539062 14.464844 L 36.941406 14.410156 C 36.832031 14.8125 36.738281 14.824219 36.738281 15.304688 C 36.738281 15.71875 37.3125 16 37.347656 16.832031 C 37.285156 16.863281 37.226562 16.894531 37.167969 16.929688 C 36.898438 17.078125 36.617188 17.230469 36.335938 17.375 L 35.714844 16.742188 L 35.714844 17.683594 L 35.546875 17.765625 L 35.3125 15.675781 L 34.777344 15.824219 L 34.140625 14.101562 L 32.035156 16.023438 L 32.007812 17.433594 L 31.324219 17.835938 L 30.597656 14.222656 L 30.160156 14.5 L 29.171875 13.332031 L 27.695312 13.371094 L 27.128906 12.800781 L 26.554688 12.941406 L 25.414062 11.796875 L 25.195312 11.929688 L 25.902344 13.511719 L 26.71875 13.511719 L 26.71875 13.148438 L 27.128906 13.148438 C 27.425781 13.863281 27.746094 13.441406 27.746094 13.867188 C 27.746094 15.363281 25.644531 16.457031 24.269531 16.738281 C 24.34375 17.007812 24.316406 17.277344 24.675781 17.277344 C 25.445312 17.277344 25.066406 17.160156 25.90625 17.097656 C 25.863281 18.625 23.914062 20.445312 23.078125 21.582031 L 23.453125 23.921875 C 23.554688 24.425781 22.25 24.964844 21.8125 25.539062 L 22.023438 26.433594 L 21.421875 26.644531 C 21.320312 27.566406 20.300781 28.589844 19.160156 28.589844 L 17.933594 28.589844 C 17.933594 27.328125 16.914062 25.527344 16.914062 24.636719 C 16.914062 23.882812 17.320312 23.78125 17.320312 22.84375 C 17.320312 21.976562 16.300781 20.738281 16.300781 20.511719 L 16.300781 19.074219 L 15.480469 19.074219 C 15.359375 18.675781 15.433594 18.535156 14.867188 18.535156 L 14.664062 18.535156 C 13.773438 18.535156 13.921875 18.890625 13.027344 18.890625 L 12.207031 18.890625 C 11.472656 18.890625 10.164062 16.8125 10.164062 16.558594 L 10.164062 14.40625 C 10.164062 13.476562 11.132812 12.464844 11.800781 12.070312 L 11.800781 11.175781 L 12.722656 10.351562 L 13.230469 10.277344 C 14.328125 10.277344 14.199219 9.738281 14.867188 9.738281 L 16.707031 9.738281 L 16.707031 10.996094 L 18.730469 11.753906 L 18.921875 10.988281 C 19.839844 11.175781 20.074219 11.53125 21.207031 11.53125 L 21.613281 11.53125 C 22.390625 11.53125 22.433594 10.628906 22.433594 9.917969 L 20.792969 10.0625 L 20.078125 8.695312 L 19.371094 8.863281 C 19.5 9.347656 19.570312 9.148438 19.570312 9.558594 C 19.570312 9.800781 19.34375 9.828125 19.160156 9.914062 L 18.449219 8.335938 L 16.925781 7.382812 L 16.71875 7.554688 L 18.019531 8.753906 C 17.84375 9.183594 17.828125 10.425781 17.113281 9.558594 L 17.78125 9.273438 L 16.113281 7.742188 L 15.113281 8.085938 L 14.132812 8.914062 C 14.027344 9.582031 13.820312 9.917969 13.023438 9.917969 C 12.496094 9.917969 12.8125 9.796875 12.003906 9.738281 L 12.003906 7.945312 L 13.84375 7.945312 L 13.246094 6.75 L 13.023438 6.867188 L 13.023438 6.507812 L 16.011719 5.300781 C 15.953125 4.921875 15.882812 5.125 15.882812 4.714844 C 15.882812 4.6875 16.085938 4.355469 16.089844 4.355469 L 16.859375 4.777344 L 16.675781 4.003906 L 15.484375 4.21875 L 15.261719 3.277344 C 16.207031 2.839844 18.289062 1.304688 18.949219 1.304688 L 19.5625 1.304688 C 20.210938 1.304688 21.9375 1.863281 22.21875 2.199219 L 20.578125 2.054688 L 21.796875 2.933594 L 21.914062 2.558594 L 22.824219 2.339844 L 22.835938 1.839844 L 23.246094 1.839844 L 23.246094 2.378906 Z M 25.566406 1.792969 "/>
<path style=" stroke:none;fill-rule:evenodd;fill:rgb(0%,0%,0%);fill-opacity:1;" d="M 28.167969 29.816406 C 28.121094 29.9375 28.078125 30.054688 28.027344 30.167969 L 27.882812 30.167969 L 27.882812 29.816406 Z M 28.167969 29.816406 "/>
<path style=" stroke:none;fill-rule:evenodd;fill:rgb(0%,0%,0%);fill-opacity:1;" d="M 28.746094 27.804688 C 28.699219 28.03125 28.652344 28.25 28.589844 28.472656 L 28.5 27.898438 Z M 28.746094 27.804688 "/>
<path style=" stroke:none;fill-rule:nonzero;fill:rgb(53.72549%,74.901961%,24.705882%);fill-opacity:1;" d="M 25.542969 35.953125 C 24.992188 37.074219 24.515625 38.015625 24.390625 39.007812 C 24.265625 39.972656 24.230469 40.410156 24.8125 39.308594 C 25.355469 38.285156 25.855469 37.296875 26.703125 36.28125 C 26.777344 36.28125 26.867188 36.28125 26.953125 36.277344 C 37.078125 35.894531 43.050781 30.574219 38.390625 18.511719 C 31.585938 22.363281 20.796875 23.699219 25.101562 35.050781 C 25.265625 35.472656 25.382812 35.761719 25.542969 35.953125 Z M 27.371094 33.792969 C 28.570312 28.476562 34.597656 25.453125 36.910156 21.503906 C 35.078125 28.21875 32.3125 29.121094 27.371094 33.792969 Z M 27.371094 33.792969 "/>
<path style=" stroke:none;fill-rule:nonzero;fill:rgb(29.803922%,65.490196%,11.764706%);fill-opacity:1;" d="M 27.371094 33.792969 C 28.570312 28.476562 34.597656 25.453125 36.910156 21.503906 C 35.078125 28.21875 32.3125 29.121094 27.371094 33.792969 Z M 27.371094 33.792969 "/>
<path style=" stroke:none;fill-rule:nonzero;fill:rgb(53.72549%,74.901961%,24.705882%);fill-opacity:1;" d="M 14.457031 35.953125 C 15.007812 37.074219 15.484375 38.015625 15.609375 39.007812 C 15.734375 39.972656 15.769531 40.410156 15.1875 39.308594 C 14.644531 38.285156 14.144531 37.296875 13.296875 36.28125 C 13.222656 36.28125 13.132812 36.28125 13.046875 36.277344 C 2.917969 35.894531 -3.050781 30.574219 1.605469 18.515625 C 8.410156 22.367188 19.199219 23.703125 14.894531 35.054688 C 14.734375 35.472656 14.613281 35.761719 14.457031 35.953125 Z M 12.628906 33.792969 C 11.429688 28.480469 5.402344 25.457031 3.089844 21.503906 C 4.917969 28.21875 7.6875 29.121094 12.628906 33.792969 Z M 12.628906 33.792969 "/>
<path style=" stroke:none;fill-rule:nonzero;fill:rgb(29.803922%,65.490196%,11.764706%);fill-opacity:1;" d="M 12.628906 33.792969 C 11.429688 28.480469 5.402344 25.457031 3.089844 21.503906 C 4.917969 28.21875 7.6875 29.121094 12.628906 33.792969 Z M 12.628906 33.792969 "/>
</g>
</svg>
